<svg width="257" height="447" viewBox="0 0 257 447" fill="none" xmlns="http://www.w3.org/2000/svg">
<path d="M31.9 446.11C22.26 445.95 12.75 444.83 3.44 442.3C2.36 442.01 0.649986 442.02 0.739986 440.59C0.829986 439.24 2.54 439.33 3.63 439.12C36.69 432.94 58.33 412.9 72.29 383.71C79.67 368.29 84.5 351.89 90.57 335.96C95.76 322.34 100.91 308.7 108 295.88C122.3 269.98 143.92 254.67 173.87 251.39C174.65 251.3 175.44 251.15 176.22 251.15C177.09 251.15 178.23 250.73 178.68 251.78C179.15 252.88 178.09 253.41 177.35 253.88C158.4 265.74 147.98 283.96 139.66 303.61C132.69 320.07 128.46 337.43 123.09 354.42C116.89 374.07 109.71 393.32 97.85 410.49C86.24 427.31 71.15 439.4 50.69 444.09C44.52 445.5 38.25 446.19 31.9 446.12V446.11Z" fill="#1B00DD"/>
<path d="M62.8101 349.67C61.4901 348.61 61.5001 346.96 61.1501 345.55C52.2101 309.7 61.1601 278 84.7701 249.76C96.9401 235.21 111.68 223.6 127.31 213C141.67 203.26 156.7 194.45 169.83 182.99C191.96 163.68 203.74 139.92 201.74 110.32C201.7 109.7 201.84 109.07 201.96 107.86C205 109.99 206.05 112.95 207.23 115.6C210.65 123.32 213.84 131.13 215.42 139.52C218.91 158.13 215.21 175.26 204.49 191.01C194.79 205.25 181.79 216.05 167.88 225.93C152.96 236.52 136.81 245.23 121.8 255.66C92.3101 276.16 72.3601 303.22 65.0501 338.64C64.3401 342.08 64.0601 345.6 63.5501 349.08C63.5201 349.26 63.1701 349.39 62.8101 349.66V349.67Z" fill="#1B00DD"/>
<path d="M198.59 446.04C198.41 440.09 199.5 434.76 199.95 429.39C201.14 415.36 201.4 401.37 198.74 387.44C193.78 361.54 176.57 349.11 150.05 352.41C145.36 352.99 140.7 353.85 136.03 354.64C132.16 355.3 131.3 354.49 132.34 350.95C134.88 342.34 137.49 333.76 139.99 325.14C140.92 321.94 142.73 319.74 146.21 319.52C159.52 318.65 172.71 318.56 185.5 323.47C206.9 331.68 216.99 347.73 218.44 369.58C220.21 396.22 211.47 420.54 200.58 444.29C200.42 444.64 200.19 444.97 199.93 445.26C199.77 445.44 199.49 445.53 198.58 446.05L198.59 446.04Z" fill="#1B00DD"/>
<path d="M116.06 193.68C135.412 193.68 151.1 177.992 151.1 158.64C151.1 139.288 135.412 123.6 116.06 123.6C96.7079 123.6 81.02 139.288 81.02 158.64C81.02 177.992 96.7079 193.68 116.06 193.68Z" fill="#1B00DD"/>
<path d="M193.4 73.6101L193.3 73.6501C180.58 79.1201 176.2 94.9801 184.32 106.2C175.27 95.7801 158.88 96.5001 150.77 107.67L150.66 107.82L150.75 107.66C157.84 95.8201 152.07 80.4601 138.94 76.2201C152.45 79.2801 165.31 69.0401 165.36 55.1901V55.0801C166.54 68.8601 180.27 77.9301 193.41 73.6101H193.4Z" fill="#FF9D00"/>
<path d="M256.69 70.33L256.61 70.36C247.41 74.32 244.24 85.7901 250.11 93.9101C243.56 86.3701 231.7 86.8901 225.84 94.9701L225.76 95.08L225.83 94.9701C230.96 86.4001 226.79 75.2901 217.28 72.2301C227.05 74.4401 236.36 67.0401 236.39 57.0201V56.9401C237.24 66.9101 247.17 73.4701 256.68 70.3501L256.69 70.33Z" fill="#FF9D00"/>
<path d="M231.17 21.19L231.06 21.24C217.04 27.28 212.21 44.75 221.16 57.12C211.18 45.63 193.11 46.42 184.17 58.74L184.05 58.9L184.15 58.73C191.97 45.68 185.61 28.75 171.13 24.07C186.02 27.44 200.2 16.16 200.25 0.890045V0.77002C201.55 15.96 216.68 25.96 231.17 21.2V21.19Z" fill="#FF9D00"/>
</svg>
